<?xml version="1.0" standalone="no"?>
<!DOCTYPE svg PUBLIC "-//W3C//DTD SVG 20010904//EN"
 "http://www.w3.org/TR/2001/REC-SVG-20010904/DTD/svg10.dtd">
<svg version="1.0" xmlns="http://www.w3.org/2000/svg"
 width="261.000000pt" height="261.000000pt" viewBox="0 0 261.000000 261.000000"
 preserveAspectRatio="xMidYMid meet">
<metadata>
Created by potrace 1.14, written by Peter Selinger 2001-2017
</metadata>
<g transform="translate(0.000000,261.000000) scale(0.100000,-0.100000)"
fill="#000000" stroke="none">
<path d="M17 2593 c-4 -3 -7 -581 -7 -1283 0 -979 3 -1279 12 -1288 9 -9 307
-12 1278 -12 1215 0 1268 1 1283 18 16 17 17 120 17 1283 0 971 -3 1268 -12
1277 -9 9 -309 12 -1288 12 -702 0 -1280 -3 -1283 -7z m2508 -58 l25 -24 0
-1201 0 -1201 -25 -24 -24 -25 -1201 0 -1201 0 -24 25 -25 24 0 1201 0 1201
25 24 24 25 1201 0 1201 0 24 -25z"/>
<path d="M150 1310 l0 -1150 1150 0 1150 0 0 1150 0 1150 -1150 0 -1150 0 0
-1150z m813 794 c96 -25 172 -69 257 -150 l78 -75 74 73 c146 146 327 196 544
152 103 -21 194 -66 265 -132 73 -67 114 -132 147 -230 l27 -77 3 -585 c2
-554 2 -587 -16 -620 -37 -71 -144 -99 -229 -61 -82 38 -77 0 -83 666 -5 582
-6 591 -28 646 -27 67 -62 103 -122 124 -154 54 -314 6 -374 -114 -43 -86 -46
-124 -46 -695 l0 -543 -23 -34 c-61 -92 -211 -92 -274 1 l-23 33 0 511 c0 535
-6 650 -38 713 -50 96 -134 147 -247 148 -96 0 -160 -20 -206 -66 -73 -73 -73
-71 -79 -729 l-5 -585 -23 -32 c-46 -64 -173 -82 -242 -33 -61 44 -60 28 -60
645 0 518 1 568 19 636 10 41 28 94 39 119 44 101 149 207 249 252 122 54 300
72 416 42z"/>
</g>
</svg>
